Coordinates
version=1
nRows=15
nColumns=34
inDegrees=yes

Units are S.I. units (second, meters, Newtons, ...)
If the header above contains a line with 'inDegrees', this indicates whether rotational values are in degrees (yes) or radians (no).

endheader
time	pelvis_tilt	pelvis_list	pelvis_rotation	pelvis_tx	pelvis_ty	pelvis_tz	hip_flexion_r	hip_adduction_r	hip_rotation_r	knee_angle_r	ankle_angle_r	subtalar_angle_r	mtp_angle_r	hip_flexion_l	hip_adduction_l	hip_rotation_l	knee_angle_l	ankle_angle_l	subtalar_angle_l	mtp_angle_l	lumbar_extension	lumbar_bending	lumbar_rotation	arm_flex_r	arm_add_r	arm_rot_r	elbow_flex_r	pro_sup_r	arm_flex_l	arm_add_l	arm_rot_l	elbow_flex_l	pro_sup_l
      0.73333330	      1.61107470	      6.49946593	    -18.21347491	      0.20356168	      1.00152117	     -0.09470859	     -1.95431827	     -6.47992542	    -15.44221706	      4.89525388	      9.21914185	     -1.49661889	      0.00000000	      4.48977677	     -2.23325682	     -8.27890663	      9.68187982	     10.62722463	     -0.33144990	      0.00000000	     -8.34726261	     -2.28265777	      6.37079233	     -1.37416344	    -43.74454195	     40.82181229	     89.59618699	    119.74817918	     -6.94067541	    -41.01951349	     32.23036234	     90.37990381	    119.74817918
      0.75000000	      1.56941100	      6.44568180	    -18.36200673	      0.20399506	      1.00160997	     -0.09537859	     -1.93273452	     -6.46314710	    -15.41987150	      4.87600001	      9.21278713	     -1.45216551	      0.00000000	      4.46770281	     -2.22816899	     -8.29739187	      9.66271625	     10.68019898	     -0.39709708	      0.00000000	     -8.34398970	     -2.34653578	      6.23692534	     -1.33342952	    -43.94098383	     40.62637509	     89.66381383	    119.74817918	     -7.02674477	    -41.52478599	     31.92767086	     90.24735617	    119.74817918
      0.76666670	      1.64690120	      6.47862107	    -18.59510360	      0.20522309	      1.00142051	     -0.09564877	     -2.05884266	     -6.56280894	    -15.16637568	      4.84282686	      9.48181590	     -1.34390016	      0.00000000	      4.35258615	     -2.09989692	     -8.35901054	      9.83021083	     10.90242282	     -0.81474731	      0.00000000	     -8.41113758	     -2.50225971	      6.02348450	     -1.70960593	    -43.95865183	     39.57121873	     90.10732848	    119.74817918	     -8.08160808	    -41.88596640	     30.35071458	     90.89708503	    119.74817918
      0.78333330	      1.68392812	      6.47659548	    -18.73954152	      0.20584960	      1.00139683	     -0.09590640	     -2.07959055	     -6.60113301	    -15.06162216	      4.89554071	      9.57306713	     -1.37743573	      0.00000000	      4.21703917	     -2.01978372	     -8.33519849	      9.76958462	     10.92658802	     -1.00768621	      0.00000000	     -8.46214054	     -2.57755417	      5.76398136	     -1.89411904	    -43.88318634	     38.73276581	     89.95118173	    119.74817918	     -8.80878092	    -42.10082328	     29.04701906	     90.69313684	    119.74817918
      0.80000000	      1.74806796	      6.47795638	    -18.86064867	      0.20663638	      1.00116728	     -0.09572114	     -2.18844556	     -6.61687979	    -14.90703115	      4.85376615	      9.72846940	     -1.43754663	      0.00000000	      4.11886424	     -1.97551240	     -8.33617711	      9.85572934	     11.06096272	     -1.22370002	      0.00000000	     -8.50031203	     -2.66430438	      5.54871616	     -2.25142068	    -43.96017234	     37.87383568	     89.92085700	    119.74817918	     -9.55842930	    -42.47061587	     27.76693146	     90.63208893	    119.74817918
      0.81666670	      1.79859006	      6.45843912	    -18.93316320	      0.20767417	      1.00096546	     -0.09536734	     -2.28705307	     -6.60499121	    -14.75623179	      4.87422339	      9.72640978	     -1.50332194	      0.00000000	      3.97047986	     -1.96346564	     -8.28335992	      9.84943821	     11.07017444	     -1.25463353	      0.00000000	     -8.48752202	     -2.67976807	      5.40141745	     -2.88453260	    -43.98700355	     36.79296806	     89.69871049	    119.74817918	    -10.44156075	    -42.61548593	     26.11476558	     90.46538260	    119.74817918
      0.83333330	      1.88286905	      6.42941870	    -18.99540147	      0.20841646	      1.00074380	     -0.09485599	     -2.41705822	     -6.58728687	    -14.60128527	      4.86170752	      9.80538503	     -1.56876054	      0.00000000	      3.83609159	     -1.97962601	     -8.27744659	      9.90026536	     11.17252768	     -1.25677697	      0.00000000	     -8.53770239	     -2.66755044	      5.27898312	     -3.54067505	    -43.90982264	     35.64192933	     89.25004662	    119.74817918	    -11.19156690	    -42.59036149	     24.47042949	     89.97473002	    119.74817918
      0.85000000	      2.00231692	      6.40540718	    -19.04837300	      0.20859044	      1.00049820	     -0.09413821	     -2.55547665	     -6.56663027	    -14.57580180	      4.84511809	     10.03108438	     -1.70754416	      0.00000000	      3.71867575	     -2.01795825	     -8.33497595	     10.01316918	     11.32610077	     -1.31054591	      0.00000000	     -8.67581752	     -2.64378109	      5.21468726	     -3.98253163	    -43.78468624	     34.69013686	     88.40983744	    119.74817918	    -11.53532202	    -42.50386868	     23.15230376	     89.02757428	    119.74817918
      0.86666670	      2.01750727	      6.40555810	    -19.06764439	      0.20891941	      1.00014583	     -0.09315022	     -2.60063291	     -6.54489178	    -14.43436001	      4.85028003	      9.89838960	     -1.66476419	      0.00000000	      3.64566345	     -2.08828413	     -8.42206347	     10.01330104	     11.27516679	     -1.14626687	      0.00000000	     -8.72872524	     -2.57376926	      5.13902930	     -4.90730607	    -43.45044038	     32.96849407	     87.54070509	    119.74817918	    -12.38179664	    -42.10314761	     20.96447341	     88.22104454	    119.74817918
      0.88333330	      2.06560097	      6.40703614	    -19.11563919	      0.20881166	      0.99986887	     -0.09195903	     -2.66789927	     -6.49466633	    -14.37046064	      4.82567095	      9.96706356	     -1.73197216	      0.00000000	      3.57861216	     -2.17096332	     -8.49762095	     10.06745166	     11.29677049	     -1.00053572	      0.00000000	     -8.84956434	     -2.49300248	      5.11322948	     -5.53958225	    -43.05956080	     31.57119167	     86.24341931	    119.74817918	    -12.86607604	    -41.58000197	     19.14687979	     86.85550431	    119.74817918
      0.90000000	      2.10775301	      6.40002036	    -19.12603599	      0.20807056	      0.99964623	     -0.09091925	     -2.72341646	     -6.43033420	    -14.31246551	      4.76627195	     10.16292648	     -1.80272369	      0.00000000	      3.51901896	     -2.25402642	     -8.54258415	     10.01545776	     11.37025269	     -0.97699223	      0.00000000	     -9.04863426	     -2.34303189	      5.06771546	     -5.84801879	    -42.67917835	     30.51591107	     84.64050792	    119.74817918	    -12.97947406	    -40.99361394	     17.77003185	     85.10375652	    119.74817918
      0.91666670	      1.96236462	      6.41730198	    -19.17896150	      0.20746736	      0.99942348	     -0.08955602	     -2.59000850	     -6.30797420	    -14.22584150	      4.69590302	      9.93747263	     -1.68059233	      0.00000000	      3.57613841	     -2.37681337	     -8.61225227	      9.82036216	     11.15216198	     -0.84651594	      0.00000000	     -9.03324548	     -2.12824175	      5.04176820	     -6.39636759	    -42.01254443	     29.04362387	     82.81083814	    119.74817918	    -13.34866904	    -40.00667349	     15.85417036	     83.17139144	    119.74817918
      0.93333330	      1.92950363	      6.40618533	    -19.19597624	      0.20617053	      0.99934091	     -0.08823004	     -2.56897669	     -6.16271616	    -14.19790709	      4.61500700	     10.13207010	     -1.75894629	      0.00000000	      3.56855512	     -2.48578211	     -8.63281765	      9.63250378	     11.16305982	     -0.87057261	      0.00000000	     -9.21997869	     -1.89292730	      4.98614934	     -6.40754728	    -41.26719558	     28.10686294	     80.62220397	    119.74817918	    -13.17645493	    -38.98719057	     14.62839535	     80.80122101	    119.74817918
      0.95000000	      1.72286472	      6.43822548	    -19.26090190	      0.20472918	      0.99919677	     -0.08681645	     -2.32506332	     -5.99783679	    -14.15057487	      4.52255074	      9.90388622	     -1.66789753	      0.00000000	      3.73886076	     -2.60373230	     -8.65758982	      9.38841360	     10.83597855	     -0.88778077	      0.00000000	     -9.14633440	     -1.63124038	      4.94693278	     -6.38198841	    -40.19552432	     27.11148491	     77.98696267	    119.74817918	    -13.03173898	    -37.53899867	     13.35115329	     78.07912609	    119.74817918
      0.96666670	      1.52378171	      6.46403461	    -19.30634000	      0.20305013	      0.99899878	     -0.08551504	     -2.09193922	     -5.80619125	    -14.11311091	      4.37825434	      9.80840551	     -1.64782465	      0.00000000	      3.88957529	     -2.70690207	     -8.67697981	      9.10121732	     10.59797902	     -1.02365248	      0.00000000	     -9.07428676	     -1.36080236	      4.85268340	     -6.07841770	    -38.91878510	     26.21271575	     75.02866595	    119.74817918	    -12.66643022	    -35.92856292	     12.30590991	     75.11291540	    119.74817918
